<svg id="Layer_1" data-name="Layer 1" xmlns="http://www.w3.org/2000/svg" viewBox="0 0 24 23.42"><defs><style>.cls-1{fill:#4f4fff;}</style></defs><title>github_icon_blue</title><path class="cls-1" d="M12,0A12,12,0,0,0,8.2,23.4a.61.61,0,0,0,.8-.6V20.6c-3.3.7-4-1.4-4-1.4a3.17,3.17,0,0,0-1.3-1.8c-1.1-.7.1-.7.1-.7a2.46,2.46,0,0,1,1.8,1.2,2.61,2.61,0,0,0,3.5,1,2.23,2.23,0,0,1,.8-1.6C7.1,17,4.3,16,4.3,11.4A4.83,4.83,0,0,1,5.5,8.2,5.14,5.14,0,0,1,5.7,5s1-.3,3.3,1.2a10.32,10.32,0,0,1,3-.4,10.32,10.32,0,0,1,3,.4C17.3,4.7,18.3,5,18.3,5a4.19,4.19,0,0,1,.1,3.2,4.38,4.38,0,0,1,1.2,3.2c0,4.6-2.8,5.6-5.5,5.9a3,3,0,0,1,.8,2.2v3.3a.61.61,0,0,0,.8.6A12,12,0,0,0,12,0Z"/></svg>